<svg width="1440" height="516" viewBox="0 0 1440 516" fill="none" xmlns="http://www.w3.org/2000/svg">
<mask id="mask0" mask-type="alpha" maskUnits="userSpaceOnUse" x="0" y="0" width="1440" height="516">
<rect width="1440" height="516" fill="#C4C4C4"/>
</mask>
<g mask="url(#mask0)">
<rect x="-3" y="1" width="1443" height="515" fill="#FAFAFA"/>
<rect x="4" y="1" width="1443" height="515" fill="#FAFAFA"/>
<mask id="mask1" mask-type="alpha" maskUnits="userSpaceOnUse" x="-1" y="1" width="1443" height="515">
<rect x="-1" y="1" width="1443" height="515" fill="#FAFAFA"/>
</mask>
<g mask="url(#mask1)">
<circle cx="1074" cy="255" r="105.5" stroke="#E7E7E7" stroke-opacity="0.5"/>
<circle cx="1074" cy="255" r="165.5" stroke="#E7E7E7" stroke-opacity="0.5"/>
<circle cx="1074" cy="255" r="230.5" stroke="#E7E7E7" stroke-opacity="0.5"/>
<circle cx="1074" cy="255" r="299.5" stroke="#E7E7E7" stroke-opacity="0.5"/>
<circle cx="1074" cy="255" r="374.5" stroke="#E7E7E7" stroke-opacity="0.5"/>
<g filter="url(#filter0_d)">
<circle cx="1074" cy="255" r="57" fill="white"/>
</g>
<path d="M1094.98 267.146C1095.07 267.828 1094.86 268.422 1094.36 268.926L1088.44 274.798C1088.18 275.095 1087.83 275.347 1087.4 275.555C1086.97 275.762 1086.55 275.896 1086.13 275.955C1086.1 275.955 1086.01 275.963 1085.87 275.978C1085.72 275.992 1085.52 276 1085.29 276C1084.72 276 1083.81 275.904 1082.55 275.711C1081.29 275.518 1079.75 275.043 1077.93 274.287C1076.11 273.531 1074.04 272.396 1071.73 270.883C1069.41 269.371 1066.95 267.295 1064.35 264.655C1062.27 262.608 1060.55 260.65 1059.19 258.782C1057.82 256.913 1056.73 255.185 1055.9 253.598C1055.07 252.012 1054.45 250.573 1054.03 249.283C1053.62 247.993 1053.33 246.88 1053.19 245.946C1053.04 245.012 1052.98 244.278 1053.01 243.744C1053.04 243.21 1053.05 242.913 1053.05 242.854C1053.11 242.439 1053.24 242.016 1053.45 241.586C1053.66 241.156 1053.91 240.807 1054.21 240.54L1060.12 234.623C1060.54 234.208 1061.01 234 1061.54 234C1061.93 234 1062.27 234.111 1062.57 234.334C1062.86 234.556 1063.12 234.831 1063.32 235.157L1068.08 244.189C1068.35 244.663 1068.42 245.182 1068.3 245.746C1068.18 246.309 1067.93 246.784 1067.55 247.169L1065.37 249.35C1065.31 249.409 1065.26 249.505 1065.21 249.639C1065.17 249.772 1065.15 249.883 1065.15 249.972C1065.26 250.595 1065.53 251.307 1065.95 252.108C1066.3 252.82 1066.85 253.687 1067.59 254.711C1068.33 255.734 1069.38 256.913 1070.75 258.248C1072.08 259.612 1073.27 260.673 1074.3 261.429C1075.34 262.185 1076.21 262.741 1076.91 263.097C1077.6 263.453 1078.14 263.668 1078.51 263.742L1079.06 263.854C1079.12 263.854 1079.22 263.831 1079.35 263.787C1079.48 263.742 1079.58 263.69 1079.64 263.631L1082.17 261.051C1082.71 260.576 1083.33 260.339 1084.04 260.339C1084.55 260.339 1084.95 260.428 1085.24 260.606H1085.29L1093.87 265.678C1094.49 266.064 1094.86 266.553 1094.98 267.146Z" fill="#FAFAFA"/>
</g>
</g>
<defs>
<filter id="filter0_d" x="1007" y="192" width="134" height="134" filterUnits="userSpaceOnUse" color-interpolation-filters="sRGB">
<feFlood flood-opacity="0" result="BackgroundImageFix"/>
<feColorMatrix in="SourceAlpha" type="matrix" values="0 0 0 0 0 0 0 0 0 0 0 0 0 0 0 0 0 0 127 0"/>
<feOffset dy="4"/>
<feGaussianBlur stdDeviation="5"/>
<feColorMatrix type="matrix" values="0 0 0 0 0 0 0 0 0 0 0 0 0 0 0 0 0 0 0.05 0"/>
<feBlend mode="normal" in2="BackgroundImageFix" result="effect1_dropShadow"/>
<feBlend mode="normal" in="SourceGraphic" in2="effect1_dropShadow" result="shape"/>
</filter>
</defs>
</svg>
