<svg width="1165" height="309" viewBox="0 0 1165 309" fill="none" xmlns="http://www.w3.org/2000/svg">
<path d="M42.3751 110.251H64.1251C77.4375 110.251 84.0937 105.439 84.0937 95.8134C84.0937 87.376 77.4375 83.1574 64.1251 83.1574H42.3751V110.251ZM42.3751 55.3134H65.0625C85.8751 55.3134 101.31 58.9854 111.375 66.3294C121.437 73.6747 126.469 85.0947 126.469 100.595C126.469 113.284 121.859 122.987 112.641 129.704C103.419 136.423 90.1875 139.783 72.9375 139.783H0V2.34539H115.687V30.1894H42.3751V55.3134Z" fill="#2ECC71"/>
<path d="M141.881 2.34539H255.693V31.6894H184.444V53.5321H250.537V81.564H184.444V108.657H257.756V139.783H141.881V2.34539" fill="#2ECC71"/>
<path d="M406.912 139.783H364.444V36.0951H331.256V78.3764C331.256 95.7537 330.332 108.518 328.491 116.674C326.647 124.83 322.335 130.815 315.553 134.627C308.769 138.439 297.819 140.346 282.693 140.346C278.067 140.346 272.756 139.844 266.756 138.846V111.002H273.132C278.881 111.002 282.941 109.736 285.319 107.204C287.693 104.674 288.881 100.032 288.881 93.283V2.34571H406.912V139.783Z" fill="#2ECC71"/>
<path d="M526.537 83.5323L563.756 94.7829C561.256 105.222 557.319 113.94 551.944 120.939C546.567 127.939 539.897 133.22 531.928 136.783C523.96 140.346 513.819 142.127 501.507 142.127C486.567 142.127 474.365 139.956 464.897 135.615C455.428 131.275 447.256 123.639 440.381 112.71C433.504 101.779 430.069 87.7883 430.069 70.7363C430.069 48.0016 436.116 30.5296 448.209 18.3176C460.303 6.10695 477.412 0.00163608 499.537 0.00163608C516.848 0.00163608 530.46 3.50297 540.365 10.5016C550.269 17.5016 557.629 28.2536 562.444 42.7509L524.944 51.095C523.632 46.9096 522.256 43.8456 520.819 41.9083C518.441 38.659 515.535 36.1576 512.1 34.4083C508.663 32.6589 504.819 31.7829 500.569 31.7829C490.944 31.7829 483.567 35.6536 478.444 43.395C474.567 49.139 472.632 58.159 472.632 70.455C472.632 85.6883 474.941 96.1296 479.569 101.778C484.193 107.427 490.691 110.251 499.069 110.251C507.191 110.251 513.332 107.97 517.491 103.408C521.647 98.847 524.663 92.2203 526.537 83.5323" fill="#2ECC71"/>
<path d="M621.506 71.3456C621.506 85.2203 624.084 95.1909 629.241 101.251C634.397 107.314 641.412 110.346 650.288 110.346C659.412 110.346 666.472 107.378 671.474 101.439C676.474 95.5016 678.974 84.8456 678.974 69.4696C678.974 56.5323 676.362 47.0803 671.146 41.111C665.928 35.1443 658.85 32.1576 649.912 32.1576C641.348 32.1576 634.474 35.191 629.288 41.251C624.097 47.3136 621.506 57.3456 621.506 71.3456V71.3456ZM579.037 71.1576C579.037 48.7203 585.285 31.2536 597.788 18.751C610.288 6.25095 627.693 0.00163608 650.006 0.00163608C672.881 0.00163608 690.506 6.14162 702.881 18.423C715.256 30.7043 721.444 47.9083 721.444 70.0323C721.444 86.0963 718.738 99.2683 713.334 109.548C707.928 119.83 700.116 127.83 689.897 133.548C679.678 139.267 666.941 142.127 651.693 142.127C636.19 142.127 623.365 139.658 613.209 134.72C603.05 129.784 594.818 121.97 588.506 111.283C582.19 100.595 579.037 87.2216 579.037 71.1576" fill="#2ECC71"/>
<path d="M870.6 139.783H828.132V36.0951H794.944V78.3764C794.944 95.7537 794.02 108.518 792.179 116.674C790.335 124.83 786.023 130.815 779.242 134.627C772.458 138.439 761.507 140.346 746.382 140.346C741.754 140.346 736.444 139.844 730.444 138.846V111.002H736.819C742.57 111.002 746.63 109.736 749.007 107.204C751.382 104.674 752.57 100.032 752.57 93.283V2.34571H870.6V139.783Z" fill="#2ECC71"/>
<path d="M974.411 87.3761L959.242 37.9694L944.228 87.3761H974.411ZM983.22 117.095H935.004L928.306 139.783H884.944L936.6 2.34539H982.923L1034.57 139.783H990.095L983.22 117.095Z" fill="#2ECC71"/>
<path d="M1090.54 60.9387H1100.94C1109.13 60.9387 1114.88 59.5187 1118.19 56.6734C1121.51 53.8294 1123.16 50.1907 1123.16 45.7507C1123.16 41.4387 1121.72 37.7827 1118.85 34.7827C1115.97 31.7827 1110.57 30.2827 1102.63 30.2827H1090.54V60.9387ZM1047.88 2.34539H1118.47C1133.85 2.34539 1145.36 6.00139 1153.02 13.3134C1160.68 20.6267 1164.51 31.0321 1164.51 44.5321C1164.51 58.4081 1160.33 69.2507 1151.99 77.064C1143.65 84.8774 1130.91 88.7827 1113.79 88.7827H1090.54V139.783H1047.88V2.34539" fill="#2ECC71"/>
<path d="M932.807 207.899H937.307C942.346 207.899 947.648 206.667 947.648 200.506C947.648 194.238 941.647 193.327 936.719 193.327H932.807V207.899ZM932.807 189.47H934.52C939.612 189.47 943.95 188.88 943.95 182.612C943.95 176.504 940.092 175.862 934.576 175.862H932.807V189.47ZM928.306 171.683H934.95C942.291 171.683 948.451 174.362 948.451 182.612C948.451 185.88 947.219 188.666 944.488 190.487C949.307 191.666 952.148 196.006 952.148 200.827C952.148 208.863 945.664 212.078 937.683 212.078H928.306V171.683Z" fill="#2ECC71"/>
<path d="M958.741 171.683H979.691V175.862H963.241V187.862H979.209V192.042H963.241V207.899H979.691V212.078H958.741V171.683Z" fill="#2ECC71"/>
<path d="M991.859 207.899H1003V212.078H987.357V171.683H991.859V207.899Z" fill="#2ECC71"/>
<path d="M1025.77 179.558C1024.17 176.772 1022.24 175.166 1018.81 175.166C1015.22 175.166 1012.11 177.736 1012.11 181.434C1012.11 184.916 1015.7 186.523 1018.43 187.755L1021.11 188.934C1026.36 191.237 1030.81 193.863 1030.81 200.291C1030.81 207.363 1025.13 212.775 1018.11 212.775C1011.63 212.775 1006.81 208.596 1005.52 202.327L1009.92 201.095C1010.5 205.22 1013.67 208.596 1018.01 208.596C1022.34 208.596 1026.31 205.273 1026.31 200.72C1026.31 196.006 1022.61 194.399 1018.86 192.684L1016.4 191.612C1011.68 189.47 1007.61 187.059 1007.61 181.272C1007.61 175.004 1012.92 170.986 1018.92 170.986C1023.42 170.986 1027.22 173.29 1029.36 177.255L1025.77 179.558" fill="#2ECC71"/>
<path d="M1039.87 191.88C1039.87 200.989 1047.26 208.596 1056.42 208.596C1065.58 208.596 1072.98 200.989 1072.98 191.88C1072.98 182.719 1065.69 175.166 1056.42 175.166C1047.15 175.166 1039.87 182.719 1039.87 191.88ZM1077.48 191.934C1077.48 203.56 1067.94 212.775 1056.42 212.775C1044.91 212.775 1035.37 203.56 1035.37 191.934C1035.37 180.361 1044.91 170.986 1056.42 170.986C1067.94 170.986 1077.48 180.361 1077.48 191.934Z" fill="#2ECC71"/>
<path d="M1088.09 207.899H1099.24V212.078H1083.59V171.683H1088.09V207.899" fill="#2ECC71"/>
<path d="M1118.47 180.255L1111.56 196.434H1125.23L1118.47 180.255ZM1109.74 200.614L1104.87 212.078H1099.94L1118.58 169.754L1136.74 212.078H1131.76L1126.99 200.614H1109.74" fill="#2ECC71"/>
<path d="M1145.65 190.38H1147.04C1152.13 190.38 1157.27 189.416 1157.27 183.148C1157.27 176.504 1152.39 175.862 1146.98 175.862H1145.65V190.38ZM1145.65 212.078H1141.15V171.683H1146.98C1154.65 171.683 1161.77 173.719 1161.77 182.826C1161.77 189.04 1157.86 193.434 1151.65 193.97L1164.5 212.078H1158.98L1146.77 194.344H1145.65V212.078Z" fill="#2ECC71"/>
<path d="M338.108 308.587H233.533L430.069 171.683H534.644L338.108 308.587Z" fill="#2ECC71"/>
<path d="M506.086 308.587H401.512L598.046 171.683H702.622L506.086 308.587Z" fill="#2ECC71"/>
<path d="M674.065 308.587H569.489L766.025 171.683H870.6L674.065 308.587Z" fill="#2ECC71"/>
</svg>
